<svg xmlns="http://www.w3.org/2000/svg" width="512" height="512" viewBox="0 0 384 384"><path d="M230.23 19.492 74.6 19.5c-9.913 0-18.428 8.514-18.428 18.428v304.36c0 4.887 2.422 9.314 5.768 12.66s7.773 5.767 12.66 5.767h234.8c4.886 0 9.314-2.422 12.66-5.767s5.767-7.773 5.767-12.66v-225.19z" color="#000" opacity=".2" style="font-feature-settings:normal;font-variant-alternates:normal;font-variant-caps:normal;font-variant-ligatures:normal;font-variant-numeric:normal;font-variant-position:normal;isolation:auto;mix-blend-mode:normal;shape-padding:0;text-decoration-color:#000;text-decoration-line:none;text-decoration-style:solid;text-indent:0;text-orientation:mixed;text-transform:none;white-space:normal"/><path fill="#fff" d="M74.6 23.25c-7.559 0-14.678 7.12-14.678 14.678v308.14c0 7.12 7.559 14.678 14.678 14.678h234.8c7.12 0 14.678-7.559 14.678-14.678v-227.42l-95.405-95.405z"/><path d="M59.923 338.57v7.5c0 7.12 7.559 14.678 14.678 14.678h234.8c7.12 0 14.678-7.559 14.678-14.678v-7.5c0 7.12-7.559 14.678-14.678 14.678h-234.8c-7.12 0-14.678-7.559-14.678-14.678" opacity=".3"/><path fill="#ccc" d="m276.33 70.906-43.002 43.002 90.75 93.548v-88.808z"/><path fill="#f4f4f4" d="m228.67 23.243 95.405 95.405h-80.728c-7.12 0-14.678-7.559-14.678-14.678z"/><g stroke-width=".938"><path fill-rule="evenodd" d="M384 294c0 49.706-40.294 90-90 90s-90-40.294-90-90 40.294-90 90-90 90 40.294 90 90" opacity=".3"/><path fill="#d41717" fill-rule="evenodd" d="M372 282c0 49.706-40.294 90-90 90s-90-40.294-90-90 40.294-90 90-90 90 40.294 90 90" style="fill:#00f" transform="translate(12 4.5)"/><path d="M249 318.95v20.047h20.047l50.629-50.629-20.047-20.047zm88.411-48.252a5.316 5.316 0 0 0 0-7.584l-12.532-12.528c-2.12-2.12-5.46-2.12-7.58 0l-10.474 10.539 20.047 20.05z" opacity=".3"/><path fill="#fff" d="M249 311.45v20.047h20.047l50.629-50.629-20.047-20.047zm88.411-48.252a5.316 5.316 0 0 0 0-7.584l-12.532-12.528c-2.12-2.12-5.46-2.12-7.58 0l-10.474 10.539 20.047 20.05z"/></g></svg>